# xmcd
#
# Track frame offsets:
#	150
#	14100
#	27225
#	39225
#	51975
#	66450
#	80250
#	90075
#	105825
#	120225
#	135075
#	145500
#	156825
#	167625
#	180675
#	192600
#	205500
#	219000
#	230325
#	245250
#
# Disc length: 3558 seconds
#
# Revision: 2
# Processed by: cddbd v1.5.2PL0 Copyright (c) Steve Scherf et al.
# Submitted via: audiograbber 1.83.01
#
DISCID=f30de414
DTITLE=Various Artist - Songs Of Faith and Inspiration (B)
DYEAR=1989
DGENRE=Gospel
TTITLE0=The Taley Brothers - Rank Stanger
TTITLE1=Dolly Parton - Golden Streets of Glory
TTITLE2=Ray Price - Rock of Ages
TTITLE3=Roy Acuff - The Great Speckled Bird
TTITLE4=Red Foley - Peace in the Valley
TTITLE5=Elvis Presley - How Great Thou Art
TTITLE6=Ricky Skaggs and Tony Rice - Talk About Suffering
TTITLE7=Buck Owens - Dust on Mother's Bible
TTITLE8=Eddy Arnold - It Is No Secret
TTITLE9=Merle Haggard - One Day at a Time
TTITLE10=The Louvin Brothers - The Christian Life
TTITLE11=Teh Oak Ridge Boy - Lord I've Been Ready for Years
TTITLE12=Loretta Lynn - Everybody Wants to Go to Heaven
TTITLE13=Johnny Cash - He Turned the Water into Wine
TTITLE14=The Wilburn Brothers - Throw Out the Life Line
TTITLE15=Tennessee Ernie Ford - Precious Memories
TTITLE16=Claude Gray - Family Bible
TTITLE17=Ernest Tubb - If We Never Meet Again
TTITLE18=George Jones - Amazing Grace
TTITLE19=The Nitty Gritty Dirt Band - Will the Circle Be Unbroken
EXTD=
EXTT0=The Staley Brothers
EXTT1=Dolly Parton
EXTT2=Ray Price
EXTT3=Roy Acuff
EXTT4=Red Foley
EXTT5=Elvis Presley
EXTT6=Ricky Skaggs and Tony Rice
EXTT7=Buck Owens
EXTT8=Eddy Arnold\n
EXTT9=Merle Haggard
EXTT10=The Louvin Brothers
EXTT11=The Oak Ridge Boys
EXTT12=Loretta Lynn
EXTT13=Johnny Cash
EXTT14=The Wilburn Brothers
EXTT15=Tennessee Ernie Ford\n\n
EXTT16=Claude Gray
EXTT17=Ernest Tubb
EXTT18=George Jones
EXTT19=The Nitty Gritty Dirt Band
PLAYORDER=
